<?xml version="1.0" encoding="UTF-8"?>
<svg width="24px" height="24px" viewBox="0 0 24 24" version="1.1" xmlns="http://www.w3.org/2000/svg" xmlns:xlink="http://www.w3.org/1999/xlink">
    <title>white_add</title>
    <g id="8.-What’s-in-Your-Drink?" stroke="none" stroke-width="1" fill="none" fill-rule="evenodd">
        <g id="Button/Add-Copy" transform="translate(-18.000000, -18.000000)">
            <g id="white_add" transform="translate(18.000000, 18.000000)">
                <rect id="Rectangle" x="0" y="0" width="24" height="24"></rect>
                <path d="M12,4 C13.1045695,4 14,4.8954305 14,6 L14,10 L18,10 C19.1045695,10 20,10.8954305 20,12 C20,13.1045695 19.1045695,14 18,14 L14,14 L14,18 C14,19.1045695 13.1045695,20 12,20 C10.8954305,20 10,19.1045695 10,18 L10,14 L6,14 C4.8954305,14 4,13.1045695 4,12 C4,10.8954305 4.8954305,10 6,10 L10,10 L10,6 C10,4.8954305 10.8954305,4 12,4 Z" id="Combined-Shape" fill="#FFFFFF"></path>
            </g>
        </g>
    </g>
</svg>