<svg xmlns="http://www.w3.org/2000/svg" xmlns:xlink="http://www.w3.org/1999/xlink" width="108" height="178" viewBox="0 0 108 178">
    <defs>
        <path id="r7psxnfiba" d="M.273.531c3.752 16.271 13.113 24.406 28.082 24.406 14.97 0 24.333-8.135 28.089-24.406H.274z"/>
    </defs>
    <g fill="none" fill-rule="evenodd">
        <g>
            <path d="M0 0H108V178H0z"/>
            <g>
                <path fill="#D1E7F8" fill-rule="nonzero" d="M59.779 120.538c-16.774 0-19.326-6.736-19.64-9.68V68.01c0-6.828 7.65-8.765 7.65-8.765H23.56s7.649 1.937 7.649 8.765v42.84c-.31 2.938-2.85 9.688-19.64 9.688-2.384 0-4.334 1.95-4.334 4.334 0 2.383 1.95 4.333 4.334 4.333h48.21c2.383 0 4.334-1.95 4.334-4.333 0-4.202-4.335-4.334-4.335-4.334z" transform="translate(18 32)"/>
                <path fill="#96C8EF" fill-rule="nonzero" d="M20.52 126.181c16.79 0 19.286-7.179 19.596-10.118l.024-48.052c0-6.829 7.649-8.766 7.649-8.766H23.56s7.649 1.937 7.649 8.766v42.838c-.31 2.94-2.85 9.69-19.64 9.69-2.384 0-4.334 1.95-4.334 4.333 0 2.384 1.95 4.333 4.334 4.333h4.822c.557-1.748 2.2-3.024 4.128-3.024z" transform="translate(18 32)"/>
                <path fill="#96C8EF" fill-rule="nonzero" d="M40.14 68.01c0-6.828 7.648-8.765 7.648-8.765H23.561s7.649 1.937 7.649 8.765v1.887c1.468.148 2.958.224 4.465.224 1.507 0 2.996-.077 4.465-.224V68.01z" transform="translate(18 32)"/>
                <path fill="#E7F4FF" fill-rule="nonzero" d="M64.865 2.53C64.17 1.282 62.853.51 61.425.51H9.924c-1.427 0-2.743.773-3.44 2.02C2.318 9.99.024 18.223.024 25.712c0 19.659 15.993 35.652 35.651 35.652 19.659 0 35.652-15.994 35.652-35.652 0-7.489-2.294-15.722-6.46-23.184z" transform="translate(18 32)"/>
                <path fill="#B5E1FF" fill-rule="nonzero" d="M23.79 25.713c0-7.489 2.296-15.722 6.462-23.184.696-1.246 2.012-2.019 3.44-2.019H9.923c-1.428 0-2.744.773-3.44 2.02C2.316 9.99.022 18.223.022 25.712c0 19.659 15.993 35.652 35.652 35.652 4.165 0 8.165-.72 11.884-2.04-13.832-4.905-23.767-18.119-23.767-33.612z" transform="translate(18 32)"/>
                <g transform="translate(18 32) translate(7.319 29.131)">
                    <mask id="5zfleyzhpb" fill="#fff">
                        <use xlink:href="#r7psxnfiba"/>
                    </mask>
                    <use fill="#B30020" fill-rule="nonzero" xlink:href="#r7psxnfiba"/>
                    <path fill="#A2001D" fill-rule="nonzero" d="M0-.303c1.274 14.465 13.566 25.24 28.356 25.24.703 0 1.4-.027 2.09-.077C22.733 18.932 17.499 9.928 16.609-.303 16.518-1.33-.072-1.13 0-.303z" mask="url(#5zfleyzhpb)"/>
                </g>
            </g>
        </g>
    </g>
</svg>
