<svg version="1.1" id="Layer_1" xmlns="http://www.w3.org/2000/svg" xmlns:xlink="http://www.w3.org/1999/xlink" x="0px" y="0px"
	 width="100%" viewBox="0 0 128 128" enable-background="new 0 0 128 128" xml:space="preserve">
<path fill="#020201" opacity="1.000000" stroke="none" 
	d="
M73.000000,129.000000 
	C48.666668,129.000000 24.833334,129.000000 1.000000,129.000000 
	C1.000000,86.333336 1.000000,43.666668 1.000000,1.000000 
	C43.666668,1.000000 86.333336,1.000000 129.000000,1.000000 
	C129.000000,43.666668 129.000000,86.333336 129.000000,129.000000 
	C110.500000,129.000000 92.000000,129.000000 73.000000,129.000000 
M80.120110,115.889664 
	C83.246010,114.953369 86.371910,114.017067 89.844070,112.977058 
	C89.844070,87.853569 89.844070,62.134068 89.844070,36.438499 
	C88.089943,36.438499 86.574921,36.438499 84.927338,36.438499 
	C84.927338,38.449215 85.086670,40.126209 84.899361,41.763554 
	C84.145500,48.353405 87.617714,55.947430 80.258644,61.061275 
	C79.583282,61.530586 79.940758,63.587963 79.938492,64.908127 
	C79.919022,76.229599 80.020988,87.552773 79.822395,98.870796 
	C79.793770,100.502411 78.359032,102.109352 77.574989,103.727707 
	C76.693016,102.082901 75.080048,100.452637 75.046959,98.790932 
	C74.821671,87.473907 74.967796,76.149971 74.883347,64.829086 
	C74.871811,63.283077 74.763084,60.972836 73.812874,60.333061 
	C69.985985,57.756443 69.789581,54.142742 69.907219,50.199512 
	C69.991531,47.373184 70.092613,44.517311 69.793518,41.716557 
	C69.331467,37.389946 63.832134,34.435543 60.436359,37.038868 
	C52.820232,42.877666 45.732601,42.020912 39.377159,36.923836 
	C34.632454,40.442287 30.193300,43.734154 25.334452,47.337246 
	C25.334452,68.787331 25.334452,91.200432 25.334452,114.000862 
	C37.045731,114.000862 48.500198,113.891609 59.948078,114.117035 
	C61.692459,114.151382 63.406311,115.735855 64.798088,117.406357 
	C62.998310,117.937645 61.204166,118.905434 59.397816,118.928780 
	C48.352459,119.071587 37.304333,119.000206 26.257128,119.000206 
	C26.057291,119.566528 25.857454,120.132858 25.657619,120.699181 
	C27.976027,121.794579 30.279430,123.800835 32.615246,123.839310 
	C49.250164,124.113274 65.892052,124.040787 82.530800,123.934433 
	C85.537125,123.915215 88.212486,122.809677 88.774376,120.239220 
	C85.531860,118.915573 82.698822,117.759087 80.120110,115.889664 
M60.385098,7.963259 
	C51.247585,4.237825 44.225639,6.111254 38.126568,13.377282 
	C36.900555,14.837876 34.413647,15.861681 32.445477,15.972252 
	C22.913921,16.507736 15.272461,23.331352 15.020097,32.500546 
	C14.750011,42.313557 14.838596,52.141254 15.041988,61.956917 
	C15.070107,63.313877 16.656221,64.638557 17.521063,65.978180 
	C18.371971,64.608849 19.875238,63.277176 19.956831,61.863449 
	C20.253637,56.720737 20.189491,51.547115 20.033831,46.392021 
	C19.934902,43.115776 20.668879,41.495529 24.435007,40.670620 
	C27.522713,39.994301 30.681320,37.630417 32.840664,35.166424 
	C36.739769,30.717224 38.399174,30.084332 43.164204,33.354645 
	C48.528149,37.036003 51.762722,37.235107 56.726078,33.315105 
	C60.828445,30.075106 64.862152,31.166227 68.948730,32.697189 
	C73.020073,34.222443 74.573967,37.700787 74.842827,41.756542 
	C75.040619,44.740204 74.637939,47.781410 75.025604,50.728199 
	C75.263847,52.539196 76.486778,54.220650 77.267570,55.960278 
	C78.155594,54.132778 79.685463,52.347645 79.809433,50.469707 
	C80.159492,45.166523 80.001968,39.824066 79.909660,34.499424 
	C79.845184,30.779852 80.797958,29.236431 84.936653,30.728033 
	C88.517464,32.018570 92.401611,31.107681 93.804291,27.363119 
	C94.697037,24.979841 94.446075,21.400072 93.221275,19.175257 
	C91.471268,15.996403 87.853210,15.320137 84.446495,17.070433 
	C81.934174,18.361206 80.834068,17.396530 79.124855,15.496472 
	C77.410004,13.590164 73.977997,10.929634 72.492172,11.534022 
	C67.409409,13.601533 64.405800,10.989628 60.385098,7.963259 
M95.166512,50.464035 
	C98.757515,50.709419 102.346275,51.098873 105.940231,51.155075 
	C108.868889,51.200871 110.115158,52.310879 110.094933,55.333443 
	C110.006889,68.489479 109.988853,81.647041 110.104263,94.802650 
	C110.133911,98.183754 108.648987,99.166000 105.553001,99.024063 
	C102.117455,98.866562 98.669121,98.988029 94.947357,98.988029 
	C95.121704,101.020348 95.241356,102.415092 95.376579,103.991386 
	C99.714462,103.991386 103.705933,104.169685 107.674400,103.943848 
	C112.102013,103.691895 114.949593,101.191414 114.998611,96.685249 
	C115.154366,82.364761 115.092796,68.041420 115.040688,53.719460 
	C115.026833,49.911900 112.975471,47.136902 109.298935,46.600922 
	C105.218834,46.006104 101.003662,46.142410 96.865768,46.342411 
	C96.217697,46.373737 95.667595,48.431629 95.166512,50.464035 
z"/>
<path fill="#FBC451" opacity="1.000000" stroke="none" 
	d="
M65.134285,116.603348 
	C63.406311,115.735855 61.692459,114.151382 59.948078,114.117035 
	C48.500198,113.891609 37.045731,114.000862 25.334452,114.000862 
	C25.334452,91.200432 25.334452,68.787331 25.334452,47.337246 
	C30.193300,43.734154 34.632454,40.442287 39.377159,36.923836 
	C45.732601,42.020912 52.820232,42.877666 60.436359,37.038868 
	C63.832134,34.435543 69.331467,37.389946 69.793518,41.716557 
	C70.092613,44.517311 69.991531,47.373184 69.907219,50.199512 
	C69.789581,54.142742 69.985985,57.756443 73.812874,60.333061 
	C74.763084,60.972836 74.871811,63.283077 74.883347,64.829086 
	C74.967796,76.149971 74.821671,87.473907 75.046959,98.790932 
	C75.080048,100.452637 76.693016,102.082901 77.574989,103.727707 
	C78.359032,102.109352 79.793770,100.502411 79.822395,98.870796 
	C80.020988,87.552773 79.919022,76.229599 79.938492,64.908127 
	C79.940758,63.587963 79.583282,61.530586 80.258644,61.061275 
	C87.617714,55.947430 84.145500,48.353405 84.899361,41.763554 
	C85.086670,40.126209 84.927338,38.449215 84.927338,36.438499 
	C86.574921,36.438499 88.089943,36.438499 89.844070,36.438499 
	C89.844070,62.134068 89.844070,87.853569 89.844070,112.977058 
	C86.371910,114.017067 83.246010,114.953369 79.578247,116.271080 
	C74.402351,116.636108 69.768318,116.619728 65.134285,116.603348 
M39.943237,65.515747 
	C39.943096,62.359329 40.255062,59.159050 39.820129,56.063728 
	C39.577854,54.339500 38.092304,52.789967 37.167053,51.161701 
	C36.415867,52.768280 35.031849,54.367298 35.012547,55.982620 
	C34.841846,70.267525 34.826962,84.556557 35.030777,98.840584 
	C35.054264,100.486710 36.694141,102.109756 37.584587,103.743507 
	C38.370716,102.130608 39.807102,100.529961 39.837749,98.902832 
	C40.041080,88.108391 39.943150,77.308281 39.943237,65.515747 
M54.913013,91.466766 
	C54.913101,93.958801 54.633621,96.494026 55.009621,98.927986 
	C55.268795,100.605759 56.435459,102.143333 57.196548,103.743568 
	C58.112034,102.096916 59.797684,100.461601 59.822117,98.801834 
	C60.032413,84.517303 60.018372,70.227402 59.837746,55.942055 
	C59.817429,54.335178 58.349388,52.746605 57.552696,51.149540 
	C56.672947,52.795624 55.063404,54.427471 55.030968,56.090088 
	C54.807415,67.549057 54.913158,79.014458 54.913013,91.466766 
z"/>
<path fill="#FCE2C8" opacity="1.000000" stroke="none" 
	d="
M60.740555,8.128077 
	C64.405800,10.989628 67.409409,13.601533 72.492172,11.534022 
	C73.977997,10.929634 77.410004,13.590164 79.124855,15.496472 
	C80.834068,17.396530 81.934174,18.361206 84.446495,17.070433 
	C87.853210,15.320137 91.471268,15.996403 93.221275,19.175257 
	C94.446075,21.400072 94.697037,24.979841 93.804291,27.363119 
	C92.401611,31.107681 88.517464,32.018570 84.936653,30.728033 
	C80.797958,29.236431 79.845184,30.779852 79.909660,34.499424 
	C80.001968,39.824066 80.159492,45.166523 79.809433,50.469707 
	C79.685463,52.347645 78.155594,54.132778 77.267563,55.960274 
	C76.486778,54.220650 75.263847,52.539196 75.025604,50.728199 
	C74.637939,47.781410 75.040619,44.740204 74.842827,41.756542 
	C74.573967,37.700787 73.020073,34.222443 68.948730,32.697189 
	C64.862152,31.166227 60.828445,30.075106 56.726078,33.315105 
	C51.762722,37.235107 48.528149,37.036003 43.164204,33.354645 
	C38.399174,30.084332 36.739769,30.717224 32.840664,35.166424 
	C30.681320,37.630417 27.522713,39.994301 24.435007,40.670620 
	C20.668879,41.495529 19.934902,43.115776 20.033831,46.392021 
	C20.189491,51.547115 20.253637,56.720737 19.956831,61.863449 
	C19.875238,63.277176 18.371971,64.608849 17.521063,65.978180 
	C16.656221,64.638557 15.070107,63.313877 15.041988,61.956917 
	C14.838596,52.141254 14.750011,42.313557 15.020097,32.500546 
	C15.272461,23.331352 22.913921,16.507736 32.445477,15.972252 
	C34.413647,15.861681 36.900555,14.837876 38.126568,13.377282 
	C44.225639,6.111254 51.247585,4.237825 60.740555,8.128077 
z"/>
<path fill="#90E0E7" opacity="1.000000" stroke="none" 
	d="
M95.119354,50.008240 
	C95.667595,48.431629 96.217697,46.373737 96.865768,46.342411 
	C101.003662,46.142410 105.218834,46.006104 109.298935,46.600922 
	C112.975471,47.136902 115.026833,49.911900 115.040688,53.719460 
	C115.092796,68.041420 115.154366,82.364761 114.998611,96.685249 
	C114.949593,101.191414 112.102013,103.691895 107.674400,103.943848 
	C103.705933,104.169685 99.714462,103.991386 95.376579,103.991386 
	C95.241356,102.415092 95.121704,101.020348 94.947357,98.988029 
	C98.669121,98.988029 102.117455,98.866562 105.553001,99.024063 
	C108.648987,99.166000 110.133911,98.183754 110.104263,94.802650 
	C109.988853,81.647041 110.006889,68.489479 110.094933,55.333443 
	C110.115158,52.310879 108.868889,51.200871 105.940231,51.155075 
	C102.346275,51.098873 98.757515,50.709419 95.119354,50.008240 
z"/>
<path fill="#94E5EC" opacity="1.000000" stroke="none" 
	d="
M64.966187,117.004852 
	C69.768318,116.619728 74.402351,116.636108 79.451080,116.627548 
	C82.698822,117.759087 85.531860,118.915573 88.774376,120.239220 
	C88.212486,122.809677 85.537125,123.915215 82.530800,123.934433 
	C65.892052,124.040787 49.250164,124.113274 32.615246,123.839310 
	C30.279430,123.800835 27.976027,121.794579 25.657619,120.699181 
	C25.857454,120.132858 26.057291,119.566528 26.257128,119.000206 
	C37.304333,119.000206 48.352459,119.071587 59.397816,118.928780 
	C61.204166,118.905434 62.998310,117.937645 64.966187,117.004852 
z"/>
<path fill="#090703" opacity="1.000000" stroke="none" 
	d="
M39.943237,66.012878 
	C39.943150,77.308281 40.041080,88.108391 39.837749,98.902832 
	C39.807102,100.529961 38.370716,102.130608 37.584587,103.743507 
	C36.694141,102.109756 35.054264,100.486710 35.030777,98.840584 
	C34.826962,84.556557 34.841846,70.267525 35.012547,55.982620 
	C35.031849,54.367298 36.415867,52.768280 37.167053,51.161701 
	C38.092304,52.789967 39.577854,54.339500 39.820129,56.063728 
	C40.255062,59.159050 39.943096,62.359329 39.943237,66.012878 
z"/>
<path fill="#090703" opacity="1.000000" stroke="none" 
	d="
M54.913010,90.972275 
	C54.913158,79.014458 54.807415,67.549057 55.030968,56.090088 
	C55.063404,54.427471 56.672947,52.795624 57.552696,51.149544 
	C58.349388,52.746605 59.817429,54.335178 59.837746,55.942055 
	C60.018372,70.227402 60.032413,84.517303 59.822117,98.801834 
	C59.797684,100.461601 58.112034,102.096916 57.196548,103.743568 
	C56.435459,102.143333 55.268795,100.605759 55.009621,98.927986 
	C54.633621,96.494026 54.913101,93.958801 54.913010,90.972275 
z"/>
</svg>