<?xml version="1.0" standalone="no"?>
<!DOCTYPE svg PUBLIC "-//W3C//DTD SVG 20010904//EN"
 "http://www.w3.org/TR/2001/REC-SVG-20010904/DTD/svg10.dtd">
<svg version="1.0" xmlns="http://www.w3.org/2000/svg"
 width="128.000000pt" height="128.000000pt" viewBox="0 0 128.000000 128.000000"
 preserveAspectRatio="xMidYMid meet">

<g transform="translate(0.000000,128.000000) scale(0.100000,-0.100000)"
fill="#000000" stroke="none">
<path d="M444 1269 c-17 -5 -51 -27 -76 -49 -26 -22 -54 -40 -63 -40 -70 0
-165 -65 -196 -134 -16 -35 -19 -68 -19 -229 0 -186 0 -188 25 -212 13 -14 36
-25 50 -25 l25 0 0 -235 c0 -263 5 -290 62 -325 31 -19 50 -20 314 -20 276 0
282 0 315 23 44 30 59 60 59 125 l0 52 79 0 c65 0 84 4 112 23 57 38 59 48 59
317 0 228 -1 247 -20 278 -27 44 -74 62 -160 62 l-70 0 0 37 c0 24 8 45 21 59
31 33 35 100 9 142 -24 38 -82 66 -121 58 -19 -3 -32 1 -44 14 -23 25 -80 43
-111 36 -17 -5 -34 0 -52 12 -57 40 -130 51 -198 31z m134 -54 c20 -9 46 -25
58 -36 17 -16 26 -18 49 -9 37 14 64 5 96 -33 25 -28 28 -30 56 -18 75 31 133
-49 82 -113 -19 -25 -27 -27 -73 -24 l-51 3 -5 -125 c-5 -117 -6 -125 -25
-125 -18 0 -20 8 -25 86 -6 101 -23 133 -77 148 -53 15 -63 14 -108 -14 -51
-32 -77 -31 -132 1 -51 29 -73 26 -103 -17 -24 -33 -51 -50 -95 -59 l-30 -6
-5 -119 c-5 -112 -6 -120 -25 -120 -19 0 -20 8 -23 165 -2 91 0 179 3 197 12
68 98 132 176 133 28 0 40 7 58 31 26 35 92 68 134 69 15 0 44 -7 65 -15z
m-96 -333 c44 -3 59 0 90 22 31 21 42 23 69 16 18 -5 36 -15 41 -22 4 -7 8
-49 8 -94 0 -73 2 -83 25 -104 25 -23 25 -24 27 -234 3 -203 4 -211 23 -211
19 0 20 8 23 212 2 211 3 213 27 237 23 23 25 32 25 126 l0 100 25 0 25 0 0
-389 0 -390 -47 -3 c-40 -3 -48 -6 -48 -23 0 -16 8 -21 43 -23 47 -4 53 -13
20 -36 -33 -24 -553 -24 -586 0 -12 8 -22 19 -22 24 0 6 84 11 193 12 184 3
192 4 192 23 0 19 -8 20 -197 23 l-198 2 0 339 0 339 34 12 c19 6 50 28 68 49
l33 37 27 -20 c16 -11 50 -21 80 -24z m639 -81 c17 -21 19 -42 19 -263 l0
-239 -25 -24 c-21 -22 -33 -25 -100 -25 -73 0 -75 1 -75 25 0 23 3 24 73 27
l72 3 0 235 0 235 -72 3 c-71 3 -73 4 -73 28 l0 26 81 -4 c70 -3 83 -6 100
-27z m-81 -261 l0 -190 -50 0 -50 0 0 190 0 190 50 0 50 0 0 -190z"/>
<path d="M345 768 c-3 -7 -4 -126 -3 -263 3 -242 4 -250 23 -250 19 0 20 7 20
260 0 240 -1 260 -18 263 -9 2 -19 -3 -22 -10z"/>
<path d="M545 768 c-3 -7 -4 -126 -3 -263 3 -242 4 -250 23 -250 19 0 20 7 20
260 0 240 -1 260 -18 263 -9 2 -19 -3 -22 -10z"/>
<path d="M694 135 c-4 -9 -2 -21 4 -27 15 -15 44 -1 40 19 -4 23 -36 29 -44 8z"/>
</g>
</svg>
