<?xml version="1.0" encoding="UTF-8" standalone="no"?> <svg width="512" height="512" viewBox="0 0 512 512" fill="none" xmlns="http://www.w3.org/2000/svg">
<path d="M368 440C373.193 455.579 373.193 472.421 368 488H144C138.807 472.421 138.807 455.579 144 440H368Z" fill="#E6E5E0"/>
<path d="M368 136H144V168H368V136Z" fill="#FFC864"/>
<path d="M368 168H144V440H368V168Z" fill="#ECAB2C"/>
<path d="M272 216C272 207.163 264.837 200 256 200C247.163 200 240 207.163 240 216V392C240 400.837 247.163 408 256 408C264.837 408 272 400.837 272 392V216Z" fill="#D78E0C"/>
<path d="M208 216C208 207.163 200.837 200 192 200C183.163 200 176 207.163 176 216V392C176 400.837 183.163 408 192 408C200.837 408 208 400.837 208 392V216Z" fill="#D78E0C"/>
<path d="M336 216C336 207.163 328.837 200 320 200C311.163 200 304 207.163 304 216V392C304 400.837 311.163 408 320 408C328.837 408 336 400.837 336 392V216Z" fill="#D78E0C"/>
<path d="M368 168H404C419.913 168 435.174 174.321 446.426 185.574C457.679 196.826 464 212.087 464 228V364C464 379.913 457.679 395.174 446.426 406.426C435.174 417.679 419.913 424 404 424H368V376H396C401.304 376 406.391 373.893 410.142 370.142C413.893 366.391 416 361.304 416 356V236C416 230.696 413.893 225.609 410.142 221.858C406.391 218.107 401.304 216 396 216H368V168Z" fill="#E6E5E0"/>
<path d="M160 136C164.243 136 168.313 137.686 171.314 140.686C174.314 143.687 176 147.757 176 152C176 157.253 177.035 162.454 179.045 167.307C181.055 172.16 184.001 176.57 187.716 180.284C195.217 187.786 205.391 192 216 192V192C221.253 192 226.454 190.965 231.307 188.955C236.16 186.945 240.57 183.999 244.284 180.284C247.999 176.57 250.945 172.16 252.955 167.307C254.965 162.454 256 157.253 256 152C256 147.757 257.686 143.687 260.686 140.686C263.687 137.686 267.757 136 272 136H368L377.64 111.9C379.64 106.9 380.558 101.533 380.334 96.1518C380.11 90.7711 378.749 85.4988 376.34 80.6821V80.6821C373.743 75.488 369.994 70.9557 365.379 67.4307C360.764 63.9057 355.404 61.4812 349.71 60.3421L349.263 60.2531C335.397 57.4803 322.662 50.665 312.663 40.6661V40.6661C307.655 35.6581 301.351 32.1435 294.459 30.5163C287.566 28.8891 280.356 29.2135 273.637 31.4531L268.774 33.0741C255.287 37.5698 240.707 37.5698 227.22 33.0741C218.744 30.2487 209.734 29.3964 200.878 30.5823C192.022 31.7682 183.554 34.961 176.12 39.9171L159.5 51.0001C154.55 54.2999 149.002 56.5981 143.168 57.7651V57.7651C133.598 59.6794 124.657 63.9506 117.154 70.1919C109.652 76.4333 103.824 84.4476 100.2 93.5091V93.5091C97.4266 100.439 96.0011 107.835 96 115.3V192C96 198.365 98.5286 204.47 103.029 208.971C107.53 213.472 113.635 216 120 216C126.365 216 132.47 213.472 136.971 208.971C141.471 204.47 144 198.365 144 192V152C144 147.757 145.686 143.687 148.686 140.686C151.687 137.686 155.757 136 160 136V136Z" fill="#ECEBE6"/>
<path d="M136 104C140.418 104 144 100.418 144 96C144 91.5817 140.418 88 136 88C131.582 88 128 91.5817 128 96C128 100.418 131.582 104 136 104Z" fill="#AEADAA"/>
<path d="M192 80C196.418 80 200 76.4183 200 72C200 67.5817 196.418 64 192 64C187.582 64 184 67.5817 184 72C184 76.4183 187.582 80 192 80Z" fill="#AEADAA"/>
<path d="M208 120C212.418 120 216 116.418 216 112C216 107.582 212.418 104 208 104C203.582 104 200 107.582 200 112C200 116.418 203.582 120 208 120Z" fill="#AEADAA"/>
<path d="M240 104C244.418 104 248 100.418 248 96C248 91.5817 244.418 88 240 88C235.582 88 232 91.5817 232 96C232 100.418 235.582 104 240 104Z" fill="#AEADAA"/>
<path d="M288 80C292.418 80 296 76.4183 296 72C296 67.5817 292.418 64 288 64C283.582 64 280 67.5817 280 72C280 76.4183 283.582 80 288 80Z" fill="#AEADAA"/>
<path d="M392 168H368V216H392V168Z" fill="#AEADAA"/>
<path d="M392 376H368V424H392V376Z" fill="#AEADAA"/>
</svg>
