<svg xmlns="http://www.w3.org/2000/svg" width="108" height="178" viewBox="0 0 108 178">
    <g fill="none" fill-rule="evenodd">
        <g fill-rule="nonzero">
            <g>
                <path fill="#B9D8F4" d="M41.466 129.878h-4.994c-8.637 0-9.07-8.409-9.09-9.494V93.981c0-8.62 5.608-10.952 5.608-10.952H13.01s5.61 2.332 5.61 10.952v26.327c-.003.643-.192 9.57-9.093 9.57H4.535c-2.382 0-4.332 1.949-4.332 4.332 0 2.382 1.95 4.331 4.332 4.331h36.93c2.383 0 4.333-1.949 4.333-4.331 0-2.383-1.95-4.332-4.332-4.332z" transform="translate(31 23)"/>
                <path fill="#96C8EF" d="M13.297 134.871h4.993c8.9 0 9.09-8.927 9.092-9.57v-4.91-21.425c-.004-8.614 1.121-10.944 1.121-10.944 1.637-3.805 4.488-4.993 4.488-4.993H13.01s5.608 2.331 5.608 10.952v26.326c-.002.643-.19 9.57-9.092 9.57H4.535c-2.382 0-4.332 1.95-4.332 4.332 0 2.383 1.95 4.332 4.332 4.332h4.487c.322-2.07 2.118-3.67 4.275-3.67z" transform="translate(31 23)"/>
                <path fill="#78B9EB" d="M32.99 83.028H13.01s5.61 2.332 5.61 10.953v.068c1.426.233 2.89.355 4.38.355 1.543 0 3.055-.131 4.527-.379.304-4.608.976-6.003.976-6.003 1.637-3.806 4.487-4.994 4.487-4.994z" transform="translate(31 23)"/>
                <path fill="#D1E7F8" d="M38.06 0H7.94C5.922 0 4.285 1.637 4.285 3.657v63.552c0 10.32 8.396 18.716 18.716 18.716s18.716-8.396 18.716-18.716V3.657C41.716 1.637 40.079 0 38.06 0z" transform="translate(31 23)"/>
                <path fill="#B9D8F4" d="M20.678 67.209V3.657c0-2.02 1.637-3.657 3.657-3.657H7.94C5.92 0 4.284 1.637 4.284 3.657v63.552c0 10.32 8.396 18.716 18.716 18.716 2.939 0 5.72-.683 8.197-1.895-6.222-3.044-10.519-9.44-10.519-16.821z" transform="translate(31 23)"/>
                <path fill="#FFF5CC" d="M31.939 15.404H14.06c-1.497 0-2.71 1.214-2.71 2.711V67.21c0 6.423 5.225 11.65 11.649 11.65 6.423 0 11.65-5.227 11.65-11.65V18.115c0-1.497-1.214-2.711-2.711-2.711z" transform="translate(31 23)"/>
                <path fill="#FFEB99" d="M20.678 67.209V15.404h-6.617c-1.497 0-2.71 1.214-2.71 2.711V67.21c0 6.423 5.226 11.65 11.65 11.65.564 0 1.119-.043 1.662-.121-2.495-3.18-3.985-7.183-3.985-11.53z" transform="translate(31 23)"/>
                <g fill="#FFF">
                    <path d="M2.358 24.517c-.556 0-1.102-.226-1.498-.621C.465 23.5.24 22.955.24 22.398c0-.56.226-1.105.621-1.501.396-.393.942-.62 1.498-.62.56 0 1.106.227 1.501.62.393.395.62.94.62 1.5 0 .558-.227 1.103-.62 1.499-.395.396-.941.621-1.5.621zM5.641 13.683c-.556 0-1.102-.226-1.497-.622-.396-.396-.622-.941-.622-1.498 0-.56.226-1.105.622-1.5.395-.394.94-.62 1.497-.62.56 0 1.106.226 1.501.62.393.395.62.94.62 1.5 0 .557-.227 1.102-.62 1.498-.395.396-.94.622-1.5.622zM2.358 4.261c-.556 0-1.102-.226-1.498-.622C.465 3.244.24 2.698.24 2.141c0-.56.226-1.105.621-1.5.396-.394.942-.62 1.498-.62.56 0 1.106.226 1.501.62.393.395.62.94.62 1.5 0 .557-.227 1.103-.62 1.498-.395.396-.941.622-1.5.622z" transform="translate(31 23) translate(22.73 20.565)"/>
                </g>
            </g>
        </g>
    </g>
</svg>
