<svg xmlns="http://www.w3.org/2000/svg" xmlns:xlink="http://www.w3.org/1999/xlink" width="108" height="178" viewBox="0 0 108 178">
    <defs>
        <path id="epm44e1z3a" d="M59.993 17.676S61.258-2.047 43.207.192H13.66C-1.183 1.862.424 25.09.424 25.09l1.897 18.92c.172 1.708 1.609 3.008 3.325 3.008h48.657c1.717 0 3.154-1.3 3.325-3.008 0 0 2.435-25.727 2.365-26.335z"/>
    </defs>
    <g fill="none" fill-rule="evenodd">
        <g>
            <path fill="#D1E7F8" fill-rule="nonzero" d="M78.603 42.655c-.95-1.05-2.3-1.65-3.717-1.65H5.012c-1.416 0-2.767.6-3.716 1.65-.95 1.05-1.412 2.453-1.27 3.862l7.182 71.607c.257 2.56 2.413 4.511 4.987 4.511h55.509c2.574 0 4.73-1.95 4.986-4.511l7.183-71.607c.141-1.409-.32-2.812-1.27-3.862z" transform="translate(14 39)"/>
            <path fill="#B9D8F4" fill-rule="nonzero" d="M29.166 118.124l-7.183-71.607c-.142-1.409.32-2.812 1.27-3.862.95-1.05 2.3-1.65 3.716-1.65H5.011c-1.416 0-2.766.6-3.716 1.65-.95 1.05-1.411 2.453-1.27 3.862l7.183 71.607c.257 2.56 2.413 4.511 4.986 4.511h21.958c-2.574 0-4.73-1.95-4.986-4.511z" transform="translate(14 39)"/>
            <path fill="#FFF" fill-rule="nonzero" d="M65.257 105.423c-.627-.692-1.517-1.087-2.45-1.087H17.09c-.933 0-1.823.395-2.45 1.087-.626.692-.93 1.617-.837 2.546l.42 4.184c.169 1.689 1.59 2.974 3.287 2.974h44.876c1.697 0 3.118-1.286 3.287-2.974l.42-4.184c.093-.929-.21-1.854-.837-2.546z" transform="translate(14 39)"/>
            <path fill="#D1E7F8" fill-rule="nonzero" d="M17.091 104.335c-.933 0-1.823.395-2.45 1.088-.626.692-.93 1.617-.837 2.546l.42 4.184c.169 1.688 1.59 2.974 3.287 2.974h11.354l-1.082-10.792H17.09z" transform="translate(14 39)"/>
            <path fill="#3E3D42" fill-rule="nonzero" d="M50.968 67.318c-2.29-.747-3.553-3.231-2.806-5.522L67.323 3.025C68.646-1.163 72.845.219 72.845.219c2.29.746 3.553 3.231 2.806 5.521L56.49 64.512c-1.358 3.946-5.522 2.806-5.522 2.806z" transform="translate(14 39)"/>
            <path fill="#1D1D1F" fill-rule="nonzero" d="M52.843 62.63L72.004 3.86c.507-1.604 1.435-2.39 2.387-2.75-.437-.39-.957-.7-1.546-.892 0 0-4.199-1.382-5.522 2.807l-19.16 58.771c-.747 2.29.516 4.775 2.806 5.522 0 0 1.538.42 3.05-.137-1.198-1.128-1.718-2.889-1.176-4.55z" transform="translate(14 39)"/>
            <g transform="translate(14 39) translate(9.974 49.808)">
                <mask id="3h6o2zwcwb" fill="#fff">
                    <use xlink:href="#epm44e1z3a"/>
                </mask>
                <use fill="#FFF" fill-rule="nonzero" xlink:href="#epm44e1z3a"/>
                <path fill="#EBE5DD" fill-rule="nonzero" d="M19.976 44.285l-4.763-18.41C12.08 11.512 25.715-2 25.715-2L11.512-.36C-3.331 1.31.424 25.091.424 25.091l1.898 18.92c.17 1.708 1.608 3.008 3.324 3.008h15.945c-.918-.78-1.395-1.881-1.615-2.734z" mask="url(#3h6o2zwcwb)"/>
            </g>
            <path fill="#EBE5DD" fill-rule="nonzero" d="M62.294 73.41c-1.24 0-1.941-.963-1.875-1.997.01-.16.032-.39.06-.676l.056-.573c.094-1.032 1.005-1.793 2.04-1.698 1.032.094 1.792 1.008 1.698 2.04l-.057.599c-.023.231-.042.417-.05.546-.064.995-.89 1.758-1.872 1.758zM61.008 84.339c-1.028-.133-1.784-1.023-1.68-2.055l.533-5.32c.104-1.032 1.021-1.785 2.055-1.681 1.032.103 1.784 1.023 1.68 2.055l-.533 5.32c-.098.968-.714 1.854-2.055 1.68z" transform="translate(14 39)"/>
            <path fill="#806749" fill-rule="nonzero" d="M11.622 87.098l.674 6.722c.171 1.707 1.608 3.008 3.325 3.008h48.657c1.716 0 3.153-1.3 3.325-3.008l.631-6.722H11.622z" transform="translate(14 39)"/>
            <path fill="#6A563D" fill-rule="nonzero" d="M29.95 94.093l-1.81-6.995H11.622l.674 6.722c.171 1.707 1.608 3.008 3.325 3.008h15.944c-.918-.78-1.395-1.882-1.615-2.735z" transform="translate(14 39)"/>
        </g>
    </g>
</svg>
