<svg xmlns="http://www.w3.org/2000/svg" width="108" height="178" viewBox="0 0 108 178">
    <g fill="none" fill-rule="evenodd">
        <g>
            <path d="M0 0H108V178H0z"/>
            <g fill-rule="nonzero">
                <path fill="#B9D8F4" d="M48.44 91.691h-25.5s7.727 2.078 7.727 12.408c-2.26 1.584-3.74 4.208-3.74 7.178 0 4.84 3.923 8.763 8.763 8.763s8.762-3.923 8.762-8.763c0-2.966-1.475-5.586-3.73-7.171 0-10.042 7.717-12.415 7.717-12.415z" transform="translate(18 37)"/>
                <path fill="#96C8EF" d="M48.44 91.691h-25.5s7.543 2.035 7.72 12.056c1.651.182 3.33.28 5.03.28 1.704 0 3.385-.098 5.041-.282.184-9.734 7.708-12.054 7.708-12.054z" transform="translate(18 37)"/>
                <path fill="#D1E7F8" d="M50.46 124.47H20.92c-2.436 0-4.43-1.993-4.43-4.43 0-2.436 1.994-4.43 4.43-4.43h29.54c2.436 0 4.43 1.993 4.43 4.43 0 2.437-1.994 4.43-4.43 4.43z" transform="translate(18 37)"/>
                <path fill="#B9D8F4" d="M26.895 120.04c0-2.436 1.994-4.43 4.43-4.43H20.92c-2.436 0-4.43 1.993-4.43 4.43 0 2.436 1.994 4.43 4.43 4.43h10.406c-2.437 0-4.43-1.993-4.43-4.43z" transform="translate(18 37)"/>
                <path fill="#E7F4FF" d="M66.422 42.376c-1.2-2.362-12.973-17.637-2.77-37.793.48-.947.55-2.046.025-2.968C63.152.693 62.172.124 61.11.124H10.269c-1.061 0-2.04.57-2.566 1.491-.526.922-.455 2.021.024 2.968 10.204 20.156-1.568 35.43-2.77 37.793C1.783 48.619.173 54.06.173 58.546c0 19.585 15.933 35.518 35.518 35.518S71.207 78.13 71.207 58.546c0-4.486-1.61-9.926-4.785-16.17z" transform="translate(18 37)"/>
                <path fill="#B5E1FF" d="M19.134 58.546c0-4.486 1.61-9.926 4.786-16.17 1.2-2.362 12.973-17.637 2.769-37.793-.48-.947-.55-2.046-.024-2.968C27.19.693 28.17.124 29.23.124H10.269c-1.061 0-2.041.57-2.566 1.491-.526.922-.456 2.021.024 2.968 10.204 20.156-1.569 35.43-2.77 37.793C1.782 48.619.172 54.06.172 58.546c0 19.585 15.933 35.518 35.517 35.518 3.283 0 6.462-.45 9.482-1.287-14.996-4.159-26.037-17.929-26.037-34.231z" transform="translate(18 37)"/>
                <path fill="#AF0600" d="M59.867 45.041c-.009-.017-1.616-3.854-4.823-11.51H16.727c-3.468 7.657-5.206 11.493-5.215 11.51-2.561 5.057-3.86 9.324-3.86 12.683 0 15.46 12.578 28.038 28.037 28.038 15.46 0 28.038-12.578 28.038-28.038 0-3.359-1.298-7.626-3.86-12.683z" transform="translate(18 37)"/>
                <path fill="#930500" d="M31.49 85.446c-7.56-6.518-12.356-16.158-12.356-26.9 0-4.486 1.61-9.926 4.786-16.17.323-.637 1.827-3.585 4.51-8.845H16.467c-3.295 7.656-4.946 11.492-4.955 11.51-2.562 5.057-3.86 9.324-3.86 12.683 0 14.033 10.362 25.69 23.836 27.722zM51.871 66.15c-1.302-.442-1.968-1.89-1.503-3.185.295-.823.521-1.68.673-2.543.237-1.355 1.53-2.26 2.883-2.024 1.355.237 2.261 1.528 2.024 2.883-.2 1.143-.5 2.275-.891 3.365-.365 1.017-1.352 2.126-3.186 1.504zM35.69 78.29c-1.376 0-2.491-1.115-2.491-2.49 0-1.376 1.115-2.491 2.49-2.491 4.186 0 8.117-1.644 11.072-4.628.967-.978 2.544-.986 3.522-.019.977.968.985 2.545.018 3.522-3.897 3.938-9.086 6.106-14.611 6.106z" transform="translate(18 37)"/>
            </g>
        </g>
    </g>
</svg>
