<svg xmlns="http://www.w3.org/2000/svg" width="108" height="178" viewBox="0 0 108 178">
    <g fill="none" fill-rule="evenodd">
        <g>
            <g>
                <g>
                    <path d="M0 0H108V178H0z" transform="translate(-120 -280) translate(70 272) translate(50 8)"/>
                    <g fill-rule="nonzero">
                        <path fill="#E7F4FF" d="M66.464 0H8.64C3.908 0 .035 7.405.035 16.082v56.204c0 5.031 1.304 9.529 3.32 12.423.409.586 4.48 4.586 4.48 17.159v27.609c0 8.677 3.872 15.776 8.606 15.776h42.223c4.734 0 8.606-7.1 8.606-15.776v-27.61c0-12.571 4.071-16.572 4.48-17.158 2.016-2.894 3.32-7.392 3.32-12.423V16.083C75.07 7.405 71.196 0 66.463 0z" transform="translate(-120 -280) translate(70 272) translate(50 8) translate(16 16)"/>
                        <path fill="#B5E1FF" d="M33.814 129.477v-27.61c0-12.57-4.07-16.572-4.479-17.158-2.016-2.894-3.32-7.391-3.32-12.422V16.082C26.015 7.405 29.888 0 34.621 0H8.641C3.908 0 .035 7.405.035 16.082v56.205c0 5.03 1.304 9.528 3.32 12.422.409.586 4.48 4.587 4.48 17.159v27.609c0 8.677 3.872 15.776 8.606 15.776h25.98c-4.734 0-8.607-7.1-8.607-15.776z" transform="translate(-120 -280) translate(70 272) translate(50 8) translate(16 16)"/>
                        <path fill="#96C8EF" d="M37.553 117.732c-5.621 0-10.22 4.599-10.22 10.22v17.301h20.44v-17.301c0-5.621-4.6-10.22-10.22-10.22z" transform="translate(-120 -280) translate(70 272) translate(50 8) translate(16 16)"/>
                        <path fill="#FFC905" d="M5.683 56.534v17.464c0 1.662.384 3.225 1.056 4.32 4.35 5.698 6.743 15.162 6.743 26.676v28.93c0 3.08 1.355 5.682 2.959 5.682h42.223c1.604 0 2.959-2.602 2.959-5.683v-28.93c0-11.511 2.394-20.977 6.743-26.674.673-1.098 1.056-2.66 1.056-4.321V56.534H5.683z" transform="translate(-120 -280) translate(70 272) translate(50 8) translate(16 16)"/>
                        <path fill="#F08E00" fill-opacity=".379" d="M5.683 60.792v13.206c0 1.662.384 3.225 1.056 4.32 4.35 5.698 6.743 15.162 6.743 26.676v28.93c0 3.08 1.355 5.682 2.959 5.682h17.9c-.34-1.774-.527-3.689-.527-5.683V98.044c0-13.173-4.07-17.366-4.479-17.98-2.016-3.031-3.32-7.744-3.32-13.016v-6.256H5.683z" transform="translate(-120 -280) translate(70 272) translate(50 8) translate(16 16)"/>
                        <path fill="#E46609" d="M13.482 127.828v6.095c0 3.08 1.355 5.683 2.959 5.683h42.223c1.604 0 2.959-2.602 2.959-5.683v-6.095h-48.14z" transform="translate(-120 -280) translate(70 272) translate(50 8) translate(16 16)"/>
                        <path fill="#FFF4EA" d="M66.349 54.239H8.757c-2.34 0-3.074 1.606-3.074 2.431v5.675h63.74V56.66c0-1.339-1.377-2.42-3.074-2.42z" transform="translate(-120 -280) translate(70 272) translate(50 8) translate(16 16)"/>
                    </g>
                </g>
            </g>
        </g>
    </g>
</svg>
