<svg xmlns="http://www.w3.org/2000/svg" width="108" height="178" viewBox="0 0 108 178">
    <g fill="none" fill-rule="evenodd">
        <g fill-rule="nonzero">
            <g transform="translate(12 54)">
                <circle cx="17.456" cy="31.173" r="17.456" fill="#5EAC24"/>
                <path fill="#4E901E" d="M8.292 31.173c0-8.212 5.672-15.095 13.31-16.956-1.33-.324-2.717-.5-4.146-.5C7.816 13.717 0 21.532 0 31.173 0 40.814 7.815 48.63 17.456 48.63c1.43 0 2.817-.176 4.146-.5-7.638-1.862-13.31-8.745-13.31-16.957z"/>
                <path fill="#FFE477" d="M17.682 45.343c-7.813.124-14.27-6.13-14.395-13.944-.125-7.813 6.13-14.27 13.943-14.395s14.271 6.13 14.396 13.943c.124 7.813-6.131 14.271-13.944 14.396z"/>
                <g fill="#FFDA44">
                    <path d="M14.188 14.197l5.213-13.175C17.72.354 15.882-.003 13.962.028c-1.92.03-3.744.445-5.404 1.166l5.63 13.003zM14.414 28.367c1.92-.03 3.745-.446 5.405-1.167l-5.63-13.003-5.214 13.176c1.682.668 3.52 1.025 5.44.994z" transform="translate(3.268 16.976)"/>
                    <path d="M14.188 14.197L1.013 8.984c-.668 1.683-1.025 3.52-.994 5.44.03 1.919.445 3.744 1.166 5.404l13.003-5.63z" transform="translate(3.268 16.976)"/>
                    <path d="M28.358 13.971c-.031-1.92-.446-3.744-1.167-5.404l-13.003 5.63 13.176 5.214c.668-1.683 1.024-3.52.994-5.44z" transform="translate(3.268 16.976)"/>
                </g>
                <path fill="#4E901E" d="M49.53 12.143c-.333-.842-1.275-1.266-2.126-.957-.299.108-7.348 2.73-10.352 9.403-1.84 4.09-1.751 8.743.264 13.831.17.43.498.75.892.92.378.164.818.189 1.235.037.298-.108 7.348-2.73 10.351-9.403 1.84-4.09 1.752-8.743-.263-13.831z"/>
                <path fill="#47821C" d="M47.405 11.185c-.299.108-7.35 2.73-10.352 9.403-1.84 4.09-1.752 8.743.264 13.831.17.43.497.75.891.92L48.64 11.224c-.379-.164-.817-.19-1.234-.04z"/>
                <path fill="#5EAC24" d="M38.069 9.527c-.672-.606-1.705-.569-2.33.085-.22.23-5.376 5.706-5.108 13.02.164 4.481 2.307 8.613 6.37 12.279.343.309.779.45 1.207.429.412-.021.817-.194 1.123-.515.22-.229 5.376-5.705 5.108-13.018-.164-4.483-2.307-8.614-6.37-12.28z"/>
                <path fill="#4E901E" d="M35.738 9.612c-.22.23-5.375 5.705-5.107 13.019.164 4.481 2.307 8.613 6.37 12.279.343.309.779.45 1.207.429l-1.346-26.24c-.412.021-.817.192-1.124.513z"/>
                <path fill="#D1E7F8" d="M68.796 29.025c-.754-.83-1.823-1.302-2.943-1.302H16.815c-1.12 0-2.19.473-2.943 1.302-.753.83-1.122 1.939-1.014 3.054l6.891 71.631c.197 2.04 1.91 3.595 3.958 3.595h35.254c2.049 0 3.762-1.556 3.958-3.595l6.892-71.63c.107-1.116-.262-2.225-1.015-3.055z"/>
                <path fill="#B9D8F4" d="M37.195 103.71l-6.891-71.63c-.108-1.116.26-2.225 1.014-3.055.754-.83 1.823-1.302 2.943-1.302H16.815c-1.12 0-2.19.473-2.943 1.302-.753.83-1.122 1.939-1.015 3.054l6.892 71.631c.196 2.04 1.91 3.595 3.958 3.595h17.446c-2.048 0-3.761-1.556-3.958-3.595z"/>
                <path fill="#FFF" d="M56.415 93.065c-.521-.575-1.26-.902-2.036-.902H28.206c-.775 0-1.515.327-2.037.902-.521.574-.776 1.341-.702 2.113l.296 3.07c.135 1.41 1.32 2.487 2.738 2.487h25.582c1.418 0 2.603-1.077 2.739-2.488l.295-3.069c.075-.772-.18-1.54-.702-2.113z"/>
                <path fill="#D1E7F8" d="M28.206 92.163c-.775 0-1.515.328-2.037.902-.521.574-.776 1.341-.702 2.113l.296 3.07c.135 1.41 1.32 2.488 2.738 2.488h8.408l-.825-8.573h-7.878z"/>
                <path fill="#3E3D42" d="M52.368 53.626c-1.942-.311-3.277-2.155-2.965-4.098L56.86 3.011c.311-1.943 2.155-3.277 4.097-2.966 1.943.312 3.277 2.156 2.966 4.098l-7.458 46.518c-.311 1.942-2.155 3.276-4.098 2.965z"/>
                <path fill="#1D1D1F" d="M52.899 27.722l-3.496 21.806c-.312 1.942 1.023 3.786 2.965 4.098 1.943.311 3.787-1.023 4.098-2.966l3.678-22.938h-7.245z"/>
                <path fill="#AB2300" d="M62.256 36.276c-.54-.595-1.307-.934-2.11-.934H22.522c-.804 0-1.57.339-2.112.934-.54.595-.805 1.391-.727 2.191l4.286 44.546c.14 1.462 1.37 2.579 2.839 2.579h29.05c1.47 0 2.699-1.117 2.84-2.58l4.286-44.545c.076-.8-.188-1.596-.729-2.19z"/>
                <g fill="#891C00">
                    <path d="M2.908.132c-.804 0-1.57.34-2.112.935-.54.595-.805 1.39-.727 2.19l4.285 44.546c.141 1.463 1.37 2.58 2.84 2.58h8.643L11.003.133H2.908zM33.55 43.65c-.432 0-.855-.176-1.161-.483-.307-.306-.482-.729-.482-1.16 0-.434.175-.857.482-1.163.306-.304.729-.48 1.16-.48.434 0 .857.176 1.163.48.305.307.48.73.48 1.163 0 .431-.175.854-.48 1.16-.306.307-.729.482-1.163.482zM17.294 17.89c-.431 0-.854-.174-1.16-.481-.307-.307-.482-.73-.482-1.16 0-.434.175-.857.482-1.163.306-.305.729-.48 1.16-.48.434 0 .857.175 1.163.48.304.306.48.729.48 1.162 0 .432-.176.854-.48 1.161-.306.306-.73.482-1.163.482zM37.048 12.845c-.431 0-.854-.175-1.16-.482-.307-.306-.482-.73-.482-1.16 0-.434.175-.857.482-1.163.306-.305.729-.48 1.16-.48.434 0 .857.175 1.163.48.304.306.48.73.48 1.163 0 .43-.176.854-.48 1.16-.306.307-.73.482-1.163.482z" transform="translate(19.615 35.21)"/>
                </g>
                <path fill="#FF9478" d="M40.716 75.79l-4.59-4.59c-1.619-1.618-1.619-4.266 0-5.884l4.59-4.59c1.618-1.618 4.266-1.618 5.884 0l4.59 4.59c1.618 1.618 1.618 4.266 0 5.884l-4.59 4.59c-1.618 1.618-4.266 1.618-5.884 0z"/>
                <path fill="#FFBCAB" d="M43.339 66.3l-4.59-4.59c-1.618-1.618-1.618-4.266 0-5.884l4.59-4.59c1.618-1.618 4.266-1.618 5.884 0l4.59 4.59c1.618 1.618 1.618 4.266 0 5.884l-4.59 4.59c-1.618 1.618-4.266 1.618-5.884 0z"/>
                <path fill="#DDFFFB" d="M41.295 45.791l-4.59-4.59c-1.619-1.618-1.619-4.266 0-5.884l4.59-4.59c1.618-1.618 4.266-1.618 5.884 0l4.59 4.59c1.618 1.618 1.618 4.266 0 5.884l-4.59 4.59c-1.618 1.618-4.266 1.618-5.884 0z"/>
                <path fill="#FF9478" d="M36.705 41.201l4.59 4.59c1.618 1.618 4.266 1.618 5.884 0l4.59-4.59c1.61-1.61 1.617-4.239.023-5.859h-15.11c-1.594 1.62-1.587 4.249.023 5.86z"/>
                <path fill="#FFF" d="M30.345 45.791l-4.59-4.59c-1.618-1.618-1.618-4.266 0-5.884l4.59-4.59c1.618-1.618 4.266-1.618 5.884 0l4.59 4.59c1.619 1.618 1.619 4.266 0 5.884l-4.59 4.59c-1.618 1.618-4.266 1.618-5.884 0z"/>
                <path fill="#FFBCAB" d="M25.755 41.201l4.59 4.59c1.619 1.618 4.267 1.618 5.885 0l4.59-4.59c1.61-1.61 1.616-4.239.022-5.859h-15.11c-1.594 1.62-1.587 4.249.023 5.86z"/>
            </g>
        </g>
    </g>
</svg>
