<svg xmlns="http://www.w3.org/2000/svg" xmlns:xlink="http://www.w3.org/1999/xlink" width="108" height="178" viewBox="0 0 108 178">
    <defs>
        <path id="nqz5sq2rua" d="M66.464 0H8.64C3.908 0 .035 7.405.035 16.082l7.8 113.395c0 8.677 3.872 15.776 8.606 15.776h42.223c4.734 0 8.606-7.1 8.606-15.776l7.8-113.394C75.07 7.405 71.196 0 66.463 0z"/>
        <path id="l3vnz8t2wc" d="M15.683 10.345c-11.125 0-11.125 3.247-11 5.005 1.872 26.29 4.805 65.814 8.8 118.573 0 3.08 1.354 5.683 2.958 5.683h42.223c1.604 0 2.959-2.602 2.959-5.683L70.316 15.35c.123-1.668.123-5.005-10.633-5.005-14.96-.102-35.471 0-44 0z"/>
    </defs>
    <g fill="none" fill-rule="evenodd">
        <g>
            <path d="M0 0H108V178H0z"/>
            <g transform="translate(16 16)">
                <mask id="1oncccupdb" fill="#fff">
                    <use xlink:href="#nqz5sq2rua"/>
                </mask>
                <use fill="#E7F4FF" fill-rule="nonzero" xlink:href="#nqz5sq2rua"/>
                <path fill="#B5E1FF" fill-rule="nonzero" d="M33.814 129.477v-27.61c0-12.57-4.07-16.572-4.479-17.158-2.016-2.894-3.32-7.391-3.32-12.422V16.082C26.015 7.405 29.888 0 34.621 0H8.641C3.908 0 .035 7.405.035 16.082l7.8 113.395c0 8.677 3.872 15.776 8.606 15.776h25.98c-4.734 0-8.607-7.1-8.607-15.776z" mask="url(#1oncccupdb)"/>
                <path fill="#96C8EF" fill-rule="nonzero" d="M37.553 117.732c-5.621 0-10.22 4.599-10.22 10.22v17.301h20.44v-17.301c0-5.621-4.6-10.22-10.22-10.22z" mask="url(#1oncccupdb)"/>
                <mask id="phbbanvw8d" fill="#fff">
                    <use xlink:href="#l3vnz8t2wc"/>
                </mask>
                <use fill="#FFC905" fill-rule="nonzero" xlink:href="#l3vnz8t2wc"/>
                <path fill="#F08E00" fill-opacity=".379" fill-rule="nonzero" d="M2.896 7l10.586 126.923c0 3.08 1.355 5.683 2.959 5.683h17.9c-.34-1.774-.527-3.689-.527-5.683L24.612 7H2.896z" mask="url(#phbbanvw8d)"/>
                <path fill="#E46609" fill-rule="nonzero" d="M13.482 127.828v6.095c0 3.08 1.355 5.683 2.959 5.683h42.223c1.604 0 2.959-2.602 2.959-5.683v-6.095h-48.14z" mask="url(#phbbanvw8d)"/>
                <path fill="#FFF4EA" fill-rule="nonzero" d="M1 7H72V24H1z" mask="url(#phbbanvw8d)"/>
            </g>
        </g>
    </g>
</svg>
