<svg xmlns="http://www.w3.org/2000/svg" width="108" height="178" viewBox="0 0 108 178">
    <g fill="none" fill-rule="evenodd">
        <g fill-rule="nonzero">
            <g>
                <path fill="#D1E7F8" d="M58.983 1.2c-.7-.74-1.673-1.158-2.69-1.158H3.707c-1.017 0-1.99.419-2.69 1.157-.7.739-1.066 1.733-1.01 2.749l5.929 109.716c.106 1.966 1.732 3.506 3.7 3.506h40.727c1.97 0 3.595-1.54 3.701-3.506l5.93-109.716c.055-1.016-.311-2.01-1.01-2.749z" transform="translate(24 44)"/>
                <g fill="#B9D8F4">
                    <path d="M21.988 113.663L16.058 3.948c-.054-1.016.311-2.01 1.01-2.749.7-.739 1.673-1.157 2.691-1.157H3.707c-1.018 0-1.99.418-2.69 1.157-.7.739-1.066 1.733-1.01 2.749l5.929 109.715c.106 1.967 1.731 3.507 3.7 3.507H25.69c-1.97 0-3.594-1.54-3.701-3.507z" transform="translate(24 44)"/>
                    <path d="M5.431 104.322l.505 9.341c.106 1.967 1.732 3.507 3.7 3.507h40.727c1.97 0 3.595-1.54 3.701-3.507l.505-9.34H5.43z" transform="translate(24 44)"/>
                </g>
                <path fill="#96C8EF" d="M5.936 113.664c.106 1.966 1.732 3.506 3.7 3.506H25.69c-1.97 0-3.594-1.54-3.7-3.506l-.505-9.342H5.43l.505 9.342z" transform="translate(24 44)"/>
                <path fill="#FFF" d="M52.506 8.205c-.455-.48-1.087-.751-1.747-.751H9.24c-.66 0-1.292.272-1.746.751-.455.48-.692 1.125-.656 1.785l5.128 94.886c.069 1.277 1.125 2.277 2.403 2.277h31.26c1.278 0 2.334-1 2.403-2.277L53.162 9.99c.035-.66-.202-1.305-.656-1.785z" transform="translate(24 44)"/>
                <g fill="#DDFFFB">
                    <path d="M2.449.095c-.66 0-1.292.272-1.747.752-.454.48-.691 1.125-.656 1.784l5.128 94.887c.07 1.276 1.125 2.276 2.403 2.276h7.267L9.456.095H2.449z" transform="translate(24 44) translate(6.792 7.359)"/>
                    <path d="M32.69 43.2l-5.865-5.865c-1.995-1.995-5.26-1.995-7.255 0L13.705 43.2c-1.995 1.995-1.995 5.26 0 7.254l5.865 5.865c1.995 1.995 5.26 1.995 7.255 0l5.865-5.865c1.995-1.995 1.995-5.26 0-7.254zM40.721 13.922l-5.864-5.864c-1.995-1.995-5.26-1.995-7.255 0l-5.865 5.864c-1.995 1.995-1.995 5.26 0 7.255l5.865 5.865c1.995 1.995 5.26 1.995 7.255 0l5.864-5.865c1.995-1.995 1.995-5.26 0-7.255zM33.796 79.425l-5.864-5.865c-1.996-1.995-5.26-1.995-7.255 0l-5.865 5.865c-1.995 1.995-1.995 5.26 0 7.255l5.865 5.865c1.995 1.995 5.26 1.995 7.255 0l5.864-5.865c1.996-1.995 1.996-5.26 0-7.255zM17.594 30.756c-.582 0-1.153-.237-1.567-.65-.414-.415-.65-.986-.65-1.568 0-.586.236-1.156.65-1.57.414-.411.985-.648 1.567-.648.586 0 1.157.237 1.57.648.411.414.648.985.648 1.57 0 .582-.237 1.153-.648 1.567-.414.414-.985.65-1.57.65zM41.037 7.488c-.582 0-1.153-.237-1.567-.65-.414-.415-.65-.986-.65-1.568 0-.586.236-1.157.65-1.57.414-.411.985-.648 1.567-.648.586 0 1.157.237 1.57.648.412.414.648.985.648 1.57 0 .582-.236 1.153-.647 1.567-.414.414-.985.65-1.57.65zM35.965 93.305c-.583 0-1.153-.237-1.567-.65-.415-.415-.651-.985-.651-1.568 0-.586.236-1.157.65-1.57.415-.411.985-.648 1.568-.648.585 0 1.156.237 1.57.648.411.414.648.984.648 1.57 0 .582-.237 1.153-.648 1.567-.414.414-.984.65-1.57.65zM18.896 63.683c-.582 0-1.153-.237-1.567-.651-.414-.414-.65-.985-.65-1.567 0-.586.236-1.157.65-1.57.414-.412.985-.648 1.567-.648.586 0 1.157.236 1.57.647.411.414.648.985.648 1.57 0 .583-.237 1.154-.647 1.568-.414.414-.985.65-1.57.65zM39.26 51.108c-.583 0-1.153-.236-1.568-.65-.414-.414-.65-.985-.65-1.568 0-.585.236-1.156.65-1.57.415-.41.985-.647 1.568-.647.585 0 1.156.236 1.57.647.41.414.648.985.648 1.57 0 .583-.237 1.154-.648 1.568-.414.414-.985.65-1.57.65z" transform="translate(24 44) translate(6.792 7.359)"/>
                </g>
                <path fill="#4E901E" d="M34.14 26.078c-.852-.175-1.69.36-1.89 1.207-.07.297-1.673 7.35 2.115 13.28 2.321 3.633 6.112 6.012 11.266 7.07.434.089.864-.006 1.209-.233.331-.219.582-.56.68-.975.07-.297 1.673-7.349-2.114-13.279-2.322-3.633-6.112-6.012-11.266-7.07z" transform="translate(24 44)"/>
                <path fill="#47821C" d="M32.25 27.284c-.07.297-1.673 7.35 2.114 13.28 2.322 3.633 6.112 6.012 11.266 7.07.434.089.865-.006 1.21-.233L32.931 26.31c-.332.22-.584.558-.682.973z" transform="translate(24 44)"/>
                <path fill="#6DC82A" d="M41.513 90.763c7.744-6.851 8.469-18.726 1.616-26.47-.988-1.116-2.694-1.22-3.81-.232L15.273 85.335c-1.117.988-1.22 2.694-.233 3.81 6.853 7.744 18.728 8.47 26.472 1.618z" transform="translate(24 44)"/>
                <path fill="#FFEB99" d="M39.334 88.446c6.555-5.8 7.167-15.816 1.366-22.372-.547-.617-1.13-1.181-1.744-1.692l-23.463 20.76c.433.672.922 1.32 1.468 1.937 5.8 6.555 15.818 7.167 22.373 1.367z" transform="translate(24 44)"/>
                <path fill="#FFDE55" d="M44.217 80.38l-16.993-5.618 3.508 17.549c3.087-.37 6.097-1.649 8.601-3.865 2.505-2.216 4.141-5.048 4.884-8.066z" transform="translate(24 44)"/>
                <path fill="#4E901E" d="M34.58 79.288c-.105-.864-.878-1.489-1.745-1.409-.304.028-7.5.748-11.92 6.223-2.708 3.355-3.76 7.705-3.126 12.928.054.44.28.818.606 1.073.312.244.714.374 1.14.335.303-.028 7.5-.747 11.92-6.222 2.708-3.356 3.76-7.705 3.125-12.928z" transform="translate(24 44)"/>
                <path fill="#47821C" d="M32.836 77.879c-.304.028-7.5.747-11.92 6.222-2.709 3.356-3.76 7.705-3.126 12.928.053.44.28.819.605 1.073l15.58-19.886c-.313-.245-.714-.377-1.14-.337z" transform="translate(24 44)"/>
            </g>
        </g>
    </g>
</svg>
