<svg xmlns="http://www.w3.org/2000/svg" width="108" height="178" viewBox="0 0 108 178">
    <g fill="none" fill-rule="evenodd">
        <g>
            <path fill="#891C00" fill-rule="nonzero" d="M18.95 145.594h15.084c3.129 0 3.864-3.145 3.864-4.8V58.212c0-11.09-3.96-14.565-7.087-16.219-3.127-1.655-5.423-4.965-5.423-6.455v-7.944H12.511v7.944c0 1.49-2.297 4.8-5.424 6.455C3.959 43.647 0 47.123 0 58.212v82.582c0 1.655.736 4.8 3.864 4.8H18.95" transform="translate(35 16)"/>
            <path fill="#AB2300" fill-rule="nonzero" d="M34.034 145.594c3.129 0 3.864-3.145 3.864-4.8V58.212c0-11.09-3.96-14.565-7.087-16.219-3.127-1.655-5.423-4.965-5.423-6.455v-7.944H18.95v118h15.084z" transform="translate(35 16)"/>
            <path fill="#1D1D1F" fill-rule="nonzero" d="M22.83 29.903h-7.763c-1.609 0-2.914-1.304-2.914-2.914V7.144c0-1.61 1.305-2.913 2.914-2.913h7.764c1.61 0 2.914 1.303 2.914 2.913V26.99c0 1.61-1.304 2.914-2.914 2.914" transform="translate(35 16)"/>
            <path fill="#1E181A" d="M18.95 29.903h5.007c.988 0 1.788-.8 1.788-1.788V6.018c0-.988-.8-1.787-1.788-1.787H18.95v25.672" transform="translate(35 16)"/>
            <path fill="#232020" d="M24.22 6.901H13.678c-1.386 0-2.51-1.123-2.51-2.51V2.51c0-1.387 1.124-2.511 2.51-2.511h10.54c1.387 0 2.51 1.124 2.51 2.51v1.88c0 1.388-1.123 2.511-2.51 2.511" transform="translate(35 16)"/>
            <path fill="#141313" d="M18.95 6.901h5.843c1.07 0 1.937-.867 1.937-1.936V1.937C26.73.867 25.863 0 24.793 0H18.95v6.901" transform="translate(35 16)"/>
            <path fill="#1D1D1F" fill-rule="nonzero" d="M0 124.024L37.898 124.024 37.898 61.629 0 61.629z" transform="translate(35 16)"/>
            <path fill="#2D2A2A" d="M18.95 124.024L37.898 124.024 37.898 61.629 18.95 61.629z" transform="translate(35 16)"/>
        </g>
    </g>
</svg>
