<svg xmlns="http://www.w3.org/2000/svg" xmlns:xlink="http://www.w3.org/1999/xlink" width="108" height="178" viewBox="0 0 108 178">
    <defs>
        <path id="63y6lse93a" d="M.842.392c4.482 7.38 11.987 11.07 22.513 11.069 10.527 0 18.057-3.69 22.593-11.069H.842z"/>
    </defs>
    <g fill="none" fill-rule="evenodd">
        <g>
            <path d="M0 0H108V178H0z"/>
            <g>
                <path fill="#D1E7F8" fill-rule="nonzero" d="M59.779 120.538c-16.774 0-19.326-6.736-19.64-9.68V68.01c0-6.828 7.65-8.765 7.65-8.765H23.56s7.649 1.937 7.649 8.765v42.84c-.31 2.938-2.85 9.688-19.64 9.688-2.384 0-4.334 1.95-4.334 4.334 0 2.383 1.95 4.333 4.334 4.333h48.21c2.383 0 4.334-1.95 4.334-4.333 0-4.202-4.335-4.334-4.335-4.334z" transform="translate(18 32)"/>
                <path fill="#96C8EF" fill-rule="nonzero" d="M20.52 126.181c16.79 0 19.286-7.179 19.596-10.118l.024-48.052c0-6.829 7.649-8.766 7.649-8.766H23.56s7.649 1.937 7.649 8.766v42.838c-.31 2.94-2.85 9.69-19.64 9.69-2.384 0-4.334 1.95-4.334 4.333 0 2.384 1.95 4.333 4.334 4.333h4.822c.557-1.748 2.2-3.024 4.128-3.024z" transform="translate(18 32)"/>
                <path fill="#96C8EF" fill-rule="nonzero" d="M40.14 68.01c0-6.828 7.648-8.765 7.648-8.765H23.561s7.649 1.937 7.649 8.765v1.887c1.468.148 2.958.224 4.465.224 1.507 0 2.996-.077 4.465-.224V68.01z" transform="translate(18 32)"/>
                <path fill="#E7F4FF" fill-rule="nonzero" d="M64.865 2.53C64.17 1.282 62.853.51 61.425.51H9.924c-1.427 0-2.743.773-3.44 2.02C2.318 9.99.024 18.223.024 25.712c0 19.659 15.993 35.652 35.651 35.652 19.659 0 35.652-15.994 35.652-35.652 0-7.489-2.294-15.722-6.46-23.184z" transform="translate(18 32)"/>
                <path fill="#B5E1FF" fill-rule="nonzero" d="M23.79 25.713c0-7.489 2.296-15.722 6.462-23.184.696-1.246 2.012-2.019 3.44-2.019H9.923c-1.428 0-2.744.773-3.44 2.02C2.316 9.99.022 18.223.022 25.712c0 19.659 15.993 35.652 35.652 35.652 4.165 0 8.165-.72 11.884-2.04-13.832-4.905-23.767-18.119-23.767-33.612z" transform="translate(18 32)"/>
                <g transform="translate(18 32) translate(12.32 42.608)">
                    <mask id="ox6y6ajunb" fill="#fff">
                        <use xlink:href="#63y6lse93a"/>
                    </mask>
                    <use fill="#B30020" fill-rule="nonzero" xlink:href="#63y6lse93a"/>
                    <path fill="#D80027" fill-rule="nonzero" d="M-5-16.895C-5-1.26 7.72 11.46 23.356 11.46c.703 0 1.4-.026 2.09-.077-8.489-6.522-13.974-16.77-13.974-28.278 0-1.347.077-2.719.223-4.105H-4.732C-4.91-19.615-5-18.243-5-16.895z" mask="url(#ox6y6ajunb)"/>
                </g>
            </g>
        </g>
    </g>
</svg>
